<?xml version="1.0" encoding="utf-8"?>
<!-- Generator: Adobe Illustrator 15.1.0, SVG Export Plug-In  -->
<!DOCTYPE svg PUBLIC "-//W3C//DTD SVG 1.1//EN" "http://www.w3.org/Graphics/SVG/1.1/DTD/svg11.dtd" [
	<!ENTITY ns_flows "http://ns.adobe.com/Flows/1.0/">
]>
<svg version="1.1"
	 xmlns="http://www.w3.org/2000/svg" xmlns:xlink="http://www.w3.org/1999/xlink" xmlns:a="http://ns.adobe.com/AdobeSVGViewerExtensions/3.0/"
	 x="0px" y="0px" width="1024px" height="1024px" viewBox="0 0 1024 1024"
	 overflow="visible" enable-background="new 0 0 1024 1024" xml:space="preserve">
<defs>
</defs>
<path fill="#20C4F4" d="M512,1024C229.68,1024,0,794.311,0,512C0,229.67,229.68,0,512,0c282.3,0,511.98,229.67,512,512
	C1023.98,794.311,794.3,1024,512,1024z"/>
<path fill="#FFFFFF" d="M177.53,447.46c-26.71,7.61-37.64,31.7-30.61,56.36c7.07,24.56,28.97,40,56.03,32.23
	c27.03-7.8,36.85-31.9,29.89-56.18C225.78,455.28,203.87,439.88,177.53,447.46z M214.99,578.12
	c-52.92,15.149-100.34-10.07-114.62-59.899c-14.4-50.171,11.61-97.551,64.75-112.771c52.57-15.08,99.99,10.16,114.37,60.33
	C293.87,515.93,268.25,562.85,214.99,578.12z"/>
<path fill="#FFFFFF" d="M456.67,769.311c-31.33,9.039-59.23,8.59-86.41-4.9l15.49-35.631c18.68,8.781,43.86,10.171,61.49,5.15
	c19.57-5.619,23.46-15.119,20.82-24.25c-8.17-28.459-93.55,25.67-113.42-43.699c-8.65-30.16,11.25-58,56.62-70.98
	c27.08-7.779,50.72-6.15,71.14,1.38l-11.2,36.5c-14.31-5.13-34.58-7.06-50.9-2.399c-17.09,4.939-22.71,12-20.1,21.14
	c8.49,29.601,96.5-22.04,114.56,41.08C526.029,732.01,500.59,756.73,456.67,769.311z"/>
<path fill="#FFFFFF" d="M653.6,271.06l45.5-13.05l5.32,18.46c5.98-17.99,21.78-31.87,43.21-38.07
	c39.341-11.25,66.341,6.65,76.54,42.17l31.08,108.37l-46.88,13.44l-25.851-90.17c-5.569-19.49-16.949-34.74-39.899-28.17
	c-21.42,6.18-27.49,24.74-21.94,44.07l26.34,91.85l-46.84,13.44L653.6,271.06z"/>
<path fill-rule="evenodd" clip-rule="evenodd" fill="#FFFFFF" d="M371.72,392.17c-25.66,7.36-35.42,30.71-28.37,55.3
	c6.96,24.27,27.52,39.35,53.19,31.99c25.46-7.32,35.11-31.05,28.16-55.34C417.64,399.53,397.18,384.9,371.72,392.17z M335.18,588.2
	l46.86-13.38l-18.77-65.541c14.42,13.66,36.55,15.51,56.14,9.88c47.5-13.6,67.62-60.74,53.35-110.57
	c-14.16-49.38-56.06-75.6-102.84-62.15c-24.56,7.06-37.8,22.12-43.46,39.48l-5.67-19.78l-45.52,13.07L335.18,588.2z"/>
<path fill="#FFFFFF" d="M532.92,374.97c-1.391-20.05,7.08-36.61,27.01-42.32c23.15-6.65,37.44,4.64,45.37,21.53L532.92,374.97z
	 M656.9,356.07c-14.2-49.15-53.43-76.46-108.021-60.79c-52.48,15.02-71.98,63.44-58.14,111.71c15.02,52.4,58.99,75.22,114.289,59.39
	c33.141-9.5,50.091-25.39,62.841-47.78l-36.97-20.27c-6.57,12.94-20.621,24.38-39,29.64c-21.03,6.03-40.33-1.26-50.601-21.83
	l118.431-33.93C659.37,367.19,658.37,361.16,656.9,356.07z"/>
<path fill="#FFFFFF" d="M536.88,512.81l-46.82,13.39l60.411,210.75l46.85-13.4L575.3,646.63c33.431-2.75,62.671,27.12,75.229,61.64
	l49.851-14.289c-14.71-44.561-45.78-72.86-79.81-74.53c28.15-20.15,36.9-51.53,29.58-86.75l-48.871,13.979
	c5.82,32.4-3.68,61.75-32.809,76.17L536.88,512.81z"/>
<path fill="#FFFFFF" d="M785.08,493.99l-0.68,117.66l-64.771-98.9l-52.46,15.05l111.96,151.95c-1,9.95-4.8,17.77-18.159,21.529
	c-8.341,2.4-19.121,3.691-33.141,2.641l2.59,42.689c13.16,1.041,27.609-0.06,40.21-3.699c43.47-12.45,51.67-33.09,54.341-80.24
	l10.379-183.13L785.08,493.99z"/>
</svg>
