<?xml version="1.0" encoding="utf-8"?>
<!-- Generator: Adobe Illustrator 18.1.0, SVG Export Plug-In . SVG Version: 6.00 Build 0)  -->
<!DOCTYPE svg PUBLIC "-//W3C//DTD SVG 1.1//EN" "http://www.w3.org/Graphics/SVG/1.1/DTD/svg11.dtd">
<svg version="1.1" id="Layer_1" xmlns="http://www.w3.org/2000/svg" xmlns:xlink="http://www.w3.org/1999/xlink" x="0px" y="0px"
	 viewBox="0 0 1629.2 376" enable-background="new 0 0 1629.2 376" xml:space="preserve" width="1629.2" height="376">
<g>
	<path fill="#9AA5AC" d="M376.1,54.8h93.6c30.3,0,51.2,7.9,64.5,21.5c11.6,11.3,17.5,26.6,17.5,46.1v0.6c0,30.3-16.1,50.4-40.7,60.8
		l47.3,69h-63.4l-39.9-60h-0.6H431v60h-54.9V54.8z M467.2,149.9c18.7,0,29.4-9.1,29.4-23.5v-0.6c0-15.5-11.3-23.5-29.7-23.5H431
		v47.5H467.2z"/>
	<path fill="#9AA5AC" d="M997.7,223.5l30.5-36.5c19.5,15.5,41.3,23.8,64.2,23.8c14.7,0,22.6-5.1,22.6-13.6v-0.6
		c0-8.2-6.5-12.7-33.4-19c-42.2-9.6-74.7-21.5-74.7-62.2v-0.6c0-36.8,29.1-63.4,76.7-63.4c33.7,0,60,9.1,81.5,26.3l-27.4,38.7
		c-18.1-12.7-37.9-19.5-55.4-19.5c-13.3,0-19.8,5.7-19.8,12.7v0.6c0,9,6.8,13,34.2,19.2c45.5,9.9,73.8,24.6,73.8,61.7v0.6
		c0,40.4-32,64.5-80.1,64.5C1055.4,256.3,1022,245.2,997.7,223.5z"/>
	<path fill="#9AA5AC" d="M1189.3,54.8H1314l28.2,46.7h-98.5v30h86.9v43.3h-86.9v31.4h101.1v46.7h-155.4V54.8z"/>
	<polygon fill="#9AA5AC" points="1485.8,54.8 1444.8,127 1404.1,54.8 1341.5,54.8 1416.8,178.8 1416.8,252.9 1471.9,252.9
		1471.9,177.9 1547.2,54.8 	"/>
	<path fill="#9AA5AC" d="M682.2,53.4h-52.9l-68.4,161.9l25.7,37.6h16.2l14.1-35.4h76.4l14.4,35.4h58.8L682.2,53.4z M633,174.8
		l22.3-56.3l22.1,56.3H633z"/>
	<polygon fill="#9AA5AC" points="925.2,54.8 878,131.5 830.7,54.8 772.7,54.8 772.7,206.1 792.7,252.9 826.5,252.9 826.5,139.7
		876.8,216.7 878,216.7 928.6,139.1 928.6,252.9 983.2,252.9 983.2,54.8 	"/>
</g>
<g>
	<path fill="#9AA5AC" d="M394.4,298.5c9.5,2.3,14.4,5.7,14.4,13.2c0,8.4-6.6,13.4-16,13.4c-6.8,0-13.3-2.4-18.7-7.2l4.7-5.6
		c4.3,3.7,8.6,5.8,14.1,5.8c4.9,0,7.9-2.2,7.9-5.7c0-3.3-1.8-5-10.1-6.9c-9.5-2.3-14.9-5.1-14.9-13.4c0-7.8,6.4-13,15.3-13
		c6.5,0,11.7,2,16.2,5.6l-4.2,5.9c-4-3-8-4.6-12.1-4.6c-4.6,0-7.3,2.4-7.3,5.4C383.8,294.9,385.8,296.4,394.4,298.5z"/>
	<path fill="#9AA5AC" d="M528.7,325.2c-13.7,0-23.3-10.4-23.3-23.1c0-12.6,9.7-23.2,23.4-23.2c13.7,0,23.3,10.4,23.3,23.1
		C552.2,314.6,542.5,325.2,528.7,325.2z M528.7,286.1c-8.9,0-15.1,7.1-15.1,15.8c0,8.8,6.3,16,15.2,16s15.1-7.1,15.1-15.8
		C543.9,293.3,537.6,286.1,528.7,286.1z"/>
	<path fill="#9AA5AC" d="M651.9,279.7h7.9v37.6h23.5v7.2h-31.4V279.7z"/>
	<path fill="#9AA5AC" d="M817.6,305c0,13.4-7.5,20.1-19.2,20.1c-11.6,0-19-6.7-19-19.7v-25.7h7.9v25.4c0,8.3,4.3,12.8,11.3,12.8
		c7,0,11.2-4.2,11.2-12.5v-25.7h7.9V305z"/>
	<path fill="#9AA5AC" d="M937,324.4h-7.9V287h-14.2v-7.3h36.3v7.3H937V324.4z"/>
	<path fill="#9AA5AC" d="M1056.9,279.7v44.7h-7.9v-44.7H1056.9z"/>
	<path fill="#9AA5AC" d="M1180,325.2c-13.7,0-23.3-10.4-23.3-23.1c0-12.6,9.7-23.2,23.4-23.2c13.7,0,23.3,10.4,23.3,23.1
		C1203.4,314.6,1193.7,325.2,1180,325.2z M1180,286.1c-8.9,0-15.1,7.1-15.1,15.8c0,8.8,6.3,16,15.2,16c8.9,0,15.1-7.1,15.1-15.8
		C1195.2,293.3,1188.9,286.1,1180,286.1z"/>
	<path fill="#9AA5AC" d="M1334.4,279.7h7.7v44.7h-6.6l-24.7-31.8v31.8h-7.7v-44.7h7.3l24,30.9V279.7z"/>
	<path fill="#9AA5AC" d="M1461,298.5c9.5,2.3,14.4,5.7,14.4,13.2c0,8.4-6.6,13.4-16,13.4c-6.8,0-13.3-2.4-18.7-7.2l4.7-5.6
		c4.3,3.7,8.6,5.8,14.1,5.8c4.9,0,7.9-2.2,7.9-5.7c0-3.3-1.8-5-10.1-6.9c-9.5-2.3-14.9-5.1-14.9-13.4c0-7.8,6.4-13,15.3-13
		c6.5,0,11.7,2,16.2,5.6l-4.2,5.9c-4-3-8-4.6-12.1-4.6c-4.6,0-7.3,2.4-7.3,5.4C1450.4,294.9,1452.4,296.4,1461,298.5z"/>
</g>
<g>
	<path fill="#9AA5AC" d="M203.7,160.7c0-0.1,0-0.1,0-0.2c0-0.1,0-0.1,0-0.2c0-14.5-12.9-14.9-19.6-14.9h-16.8v0.1v29.8v0.1h16.8
		C190.8,175.6,203.7,175.2,203.7,160.7z"/>
	<path fill="#9AA5AC" d="M51.4,54.8v269.5h269.8V54.8H51.4z M126.7,118.9h63.8c15,0,26.5,1.8,31.5,4c17,7.3,22.1,26.7,22.1,37.7
		c0,11.1-5.1,30.5-22.1,37.7c-4.9,2.1-11.2,4-31.5,4h-63.8V118.9z M167.3,246.7h-40.6v-33.6h40.6V246.7z M212.2,260.7l-27.8-47.6
		h43.4l29.3,47.6H212.2z"/>
</g>
<g>
	<path fill="#9AA5AC" d="M1565,70.8h-1.8V56.5h-5.4v-1.7h12.5v1.7h-5.4V70.8z"/>
	<path fill="#9AA5AC" d="M1581.4,66.4L1581.4,66.4l-5.9-8.5v12.9h-1.8v-16h1.8l5.8,8.7l5.8-8.7h1.8v16h-1.8V57.9L1581.4,66.4z"/>
</g>
</svg>
